<?xml version="1.0" encoding="UTF-8" standalone="no"?>
<!-- Created with Inkscape (http://www.inkscape.org/) -->

<svg
   width="1565.1656mm"
   height="330.93442mm"
   viewBox="0 0 1565.1656 330.93442"
   version="1.1"
   id="svg5"
   xml:space="preserve"
   xmlns="http://www.w3.org/2000/svg"
   xmlns:svg="http://www.w3.org/2000/svg"><defs
     id="defs2" /><g
     id="layer1"
     transform="translate(-95.255787,-349.55826)"><text
       xml:space="preserve"
       style="font-size:294.297px;font-family:Montserrat;-inkscape-font-specification:Montserrat;fill:#ffffff;stroke-width:0.845351;stroke-linecap:round;stroke-linejoin:round;paint-order:stroke fill markers"
       x="484.27219"
       y="601.10736"
       id="text1387"><tspan
         id="tspan1385"
         style="font-weight:bold;font-size:294.297px;fill:#ffffff;stroke-width:0.845351"
         x="484.27219"
         y="601.10736">PlaniFy</tspan></text><path
       style="fill:#ffffff;stroke-width:1.33169"
       d="m 290.93956,613.28851 c -5.31533,-2.2664 -5.74678,-5.21352 -5.74678,-39.25652 0,-32.3456 -0.0302,-32.71413 -2.79654,-32.71413 -1.53814,0 -4.83407,-2.03749 -7.32434,-4.52775 l -4.52775,-4.52782 v -27.13661 c 0,-30.1596 0.38,-31.68148 8.78729,-35.19428 6.43809,-2.68999 40.52986,-2.59093 45.79754,0.13293 7.65497,3.95854 8.00487,5.45908 8.00487,34.32831 0,20.24781 -0.44241,27.25934 -1.89765,30.07344 -1.86239,3.60144 -6.99321,6.85161 -10.81612,6.85161 -1.64021,0 -1.93486,5.04764 -1.93486,33.14488 0,40.2829 0.41525,39.17152 -14.83706,39.71626 -5.38964,0.19227 -11.1085,-0.20837 -12.7086,-0.89047 z m -67.59516,-22.9942 c -1.69717,-2.42307 -2.07829,-7.55375 -2.10186,-28.29852 l -0.0302,-25.33887 -4.29311,-1.99757 c -6.6156,-3.07814 -7.59295,-6.51374 -7.61489,-26.76813 -0.0202,-18.92362 1.27752,-25.67483 5.356,-27.85752 1.33762,-0.71592 10.70922,-1.34289 20.82571,-1.39334 18.24892,-0.0911 18.41733,-0.0638 21.39838,3.40153 2.85206,3.31571 3.00476,4.59343 3.00476,25.14086 0,19.90539 -0.21743,21.88091 -2.70025,24.54598 -1.48514,1.59412 -4.18182,3.27027 -5.99266,3.72476 l -3.29237,0.82635 v 26.39442 c 0,31.39418 0.35535,30.57977 -13.33657,30.57977 -7.94699,0 -9.42403,-0.38957 -11.2243,-2.95972 z m 133.18928,0.86707 c -1.76242,-1.76243 -2.0927,-6.28092 -2.0927,-28.63147 0,-23.27762 -0.25819,-26.53883 -2.09993,-26.53883 -1.15502,0 -3.8517,-1.75169 -5.99266,-3.89267 l -3.89262,-3.89265 v -21.33531 c 0,-20.23538 0.15459,-21.50973 2.99631,-24.71827 2.91194,-3.28763 3.50496,-3.38851 21.06292,-3.58103 11.09791,-0.12177 19.1341,0.37296 20.83415,1.28302 4.42498,2.36816 5.71237,8.71018 5.69143,28.03705 -0.0202,20.25439 -0.99929,23.68999 -7.61485,26.76813 l -4.29317,1.99757 -0.0302,25.33887 c -0.0353,31.33197 -0.005,31.25824 -13.32625,31.25824 -6.54369,0 -9.74752,-0.59629 -11.24389,-2.09265 z M 172.99737,573.17192 c -2.06038,-1.20007 -2.33046,-3.74202 -2.33046,-21.9325 0,-17.40123 -0.30804,-20.57516 -1.99758,-20.57516 -1.09865,0 -3.19607,-1.19851 -4.66093,-2.66336 -2.37763,-2.37762 -2.66341,-4.43902 -2.66341,-19.21296 0,-16.29258 0.0543,-16.5924 3.50883,-19.30962 2.97567,-2.34064 5.38144,-2.76004 15.83284,-2.76004 17.88008,0 18.50263,0.66201 18.98407,20.18794 0.40214,16.30254 -0.76092,20.73365 -6.05572,23.07509 -2.88009,1.2736 -2.97267,1.92027 -2.97267,20.76783 0,17.15475 -0.28788,19.71366 -2.43534,21.65718 -2.71869,2.46038 -11.53772,2.9043 -15.20963,0.7656 z m 240.91054,-0.99698 c -1.83998,-2.03314 -2.20393,-5.66177 -2.20393,-21.97296 0,-15.47846 -0.37195,-19.53772 -1.79116,-19.53772 -0.98515,0 -2.78296,-1.09587 -3.9951,-2.4353 -1.81495,-2.00552 -2.20392,-5.51773 -2.20392,-19.89996 0,-21.65684 -0.0402,-21.61072 18.09459,-21.61072 10.30093,0 12.7154,0.4248 15.68406,2.76004 3.45438,2.71722 3.50883,3.01704 3.50883,19.30962 0,14.77394 -0.28588,16.83534 -2.6634,19.21296 -1.46485,1.46485 -3.5623,2.66336 -4.66094,2.66336 -1.68948,0 -1.99751,3.17609 -1.99751,20.59448 0,18.99817 -0.19982,20.70128 -2.57588,21.97298 -4.22783,2.26272 -12.72645,1.67167 -15.19564,-1.05678 z M 173.73316,479.79739 c -1.60945,-0.77757 -3.89562,-3.45653 -5.08039,-5.9532 -5.17164,-10.89846 6.20984,-22.27602 17.10971,-17.10372 8.34184,3.95851 10.15284,14.25616 3.65062,20.75836 -4.16285,4.16285 -10.03849,5.02419 -15.67994,2.29856 z m 239.20008,-2.29856 c -2.8196,-2.81953 -3.89268,-5.17758 -3.89268,-8.55384 0,-5.48224 4.95487,-12.13938 9.97261,-13.39879 4.94751,-1.24173 12.14698,2.33465 14.72136,7.31287 6.66338,12.88551 -10.48599,24.95513 -20.80129,14.63976 z M 225.26642,467.8169 c -6.67697,-4.52458 -9.27478,-12.37896 -6.61743,-20.0073 2.81512,-8.08109 9.1968,-12.12721 17.85428,-11.32004 5.45748,0.50881 7.32605,1.43164 10.98649,5.42593 3.7704,4.11422 4.41062,5.78494 4.41062,11.51039 0,5.72544 -0.64022,7.39615 -4.41062,11.51038 -3.66044,3.99429 -5.52901,4.91712 -10.98649,5.42593 -5.36237,0.4998 -7.43603,0.0302 -11.23685,-2.54529 z m 135.05861,1.63081 c -1.52459,-0.61676 -4.37112,-3.02183 -6.32555,-5.34453 -2.80037,-3.32805 -3.55359,-5.61699 -3.55359,-10.799 0,-5.57652 0.66473,-7.30125 4.3738,-11.34848 10.65932,-11.63139 30.24037,-4.20427 30.24037,11.47018 0,12.13395 -13.20396,20.68663 -24.73503,16.02183 z M 295.1386,458.72797 c -5.44369,-1.66174 -12.11104,-8.41361 -14.01994,-14.1976 -4.02931,-12.20885 3.56808,-25.48038 16.16248,-28.23345 13.10292,-2.86422 26.53086,7.67898 26.53086,20.83131 0,14.88065 -14.61602,25.89089 -28.6734,21.59974 z"
       id="path1503" /></g></svg>
